<svg xmlns="http://www.w3.org/2000/svg" xmlns:svg="http://www.w3.org/2000/svg" id="svg4479" width="1011.431" height="404.993" version="1.1"><metadata id="metadata4485"/><g id="g4477" transform="matrix(1.3195079,0,0,1.3195079,153.78791,-486.58739)"><rect id="0_0" width="101" height="1" x="-97" y="454.5" class="rect" style="opacity:.8;fill:#a0a0a0;stroke:#000;stroke-width:.44"/><rect id="0_1" width="101" height="1" x="-95" y="456.5" class="rect" style="opacity:.8;fill:#e0e0e0;stroke:#000;stroke-width:.44"/><rect id="0_2" width="101" height="1" x="-93" y="458.5" class="rect" style="opacity:.8;fill:#a0a0a0;stroke:#000;stroke-width:.44"/><rect id="0_3" width="101" height="1" x="-91" y="460.5" class="rect" style="opacity:.8;fill:#e0e0e0;stroke:#000;stroke-width:.44"/><rect id="0_4" width="101" height="1" x="-89" y="462.5" class="rect" style="opacity:.8;fill:#a0a0a0;stroke:#000;stroke-width:.44"/><rect id="0_5" width="101" height="1" x="-87" y="464.5" class="rect" style="opacity:.8;fill:#e0e0e0;stroke:#000;stroke-width:.44"/><rect id="0_6" width="101" height="1" x="-85" y="466.5" class="rect" style="opacity:.8;fill:#a0a0a0;stroke:#000;stroke-width:.44"/><rect id="0_7" width="101" height="1" x="-83" y="468.5" class="rect" style="opacity:.8;fill:#e0e0e0;stroke:#000;stroke-width:.44"/><rect id="0_8" width="101" height="1" x="-81" y="470.5" class="rect" style="opacity:.8;fill:#a0a0a0;stroke:#000;stroke-width:.44"/><rect id="0_9" width="101" height="1" x="-79" y="472.5" class="rect" style="opacity:.8;fill:#e0e0e0;stroke:#000;stroke-width:.44"/><rect id="0_10" width="101" height="1" x="-77" y="474.5" class="rect" style="opacity:.8;fill:#a0a0a0;stroke:#000;stroke-width:.44"/><rect id="0_11" width="101" height="1" x="-75" y="476.5" class="rect" style="opacity:.8;fill:#e0e0e0;stroke:#000;stroke-width:.44"/><rect id="0_12" width="101" height="1" x="-73" y="478.5" class="rect" style="opacity:.8;fill:#a0a0a0;stroke:#000;stroke-width:.44"/><rect id="0_13" width="101" height="1" x="-71" y="480.5" class="rect" style="opacity:.8;fill:#e0e0e0;stroke:#000;stroke-width:.44"/><rect id="0_14" width="101" height="1" x="-69" y="482.5" class="rect" style="opacity:.8;fill:#a0a0a0;stroke:#000;stroke-width:.44"/><rect id="0_15" width="101" height="1" x="-67" y="484.5" class="rect" style="opacity:.8;fill:#e0e0e0;stroke:#000;stroke-width:.44"/><rect id="1_0" width="101" height="1" x="28" y="460.5" class="rect" style="opacity:.8;fill:#a0a0a0;stroke:#000;stroke-width:.44"/><rect id="1_1" width="101" height="1" x="30" y="462.5" class="rect" style="opacity:.8;fill:#e0e0e0;stroke:#000;stroke-width:.44"/><rect id="1_2" width="101" height="1" x="32" y="464.5" class="rect" style="opacity:.8;fill:#a0a0a0;stroke:#000;stroke-width:.44"/><rect id="1_3" width="101" height="1" x="34" y="466.5" class="rect" style="opacity:.8;fill:#e0e0e0;stroke:#000;stroke-width:.44"/><rect id="1_4" width="101" height="1" x="36" y="468.5" class="rect" style="opacity:.8;fill:#a0a0a0;stroke:#000;stroke-width:.44"/><rect id="1_5" width="101" height="1" x="38" y="470.5" class="rect" style="opacity:.8;fill:#e0e0e0;stroke:#000;stroke-width:.44"/><rect id="1_6" width="101" height="1" x="40" y="472.5" class="rect" style="opacity:.8;fill:#a0a0a0;stroke:#000;stroke-width:.44"/><rect id="1_7" width="101" height="1" x="42" y="474.5" class="rect" style="opacity:.8;fill:#e0e0e0;stroke:#000;stroke-width:.44"/><rect id="1_8" width="101" height="1" x="44" y="476.5" class="rect" style="opacity:.8;fill:#a0a0a0;stroke:#000;stroke-width:.44"/><rect id="1_9" width="101" height="1" x="46" y="478.5" class="rect" style="opacity:.8;fill:#e0e0e0;stroke:#000;stroke-width:.44"/><rect id="2_0" width="32" height="1" x="156" y="493" class="rect" style="opacity:.8;fill:#a0a0a0;stroke:#000;stroke-width:.44"/><rect id="2_1" width="32" height="1" x="158" y="495" class="rect" style="opacity:.8;fill:#e0e0e0;stroke:#000;stroke-width:.44"/><rect id="2_2" width="32" height="1" x="160" y="497" class="rect" style="opacity:.8;fill:#a0a0a0;stroke:#000;stroke-width:.44"/><rect id="2_3" width="32" height="1" x="162" y="499" class="rect" style="opacity:.8;fill:#e0e0e0;stroke:#000;stroke-width:.44"/><rect id="2_4" width="32" height="1" x="164" y="501" class="rect" style="opacity:.8;fill:#a0a0a0;stroke:#000;stroke-width:.44"/><rect id="2_5" width="32" height="1" x="166" y="503" class="rect" style="opacity:.8;fill:#e0e0e0;stroke:#000;stroke-width:.44"/><rect id="2_6" width="32" height="1" x="168" y="505" class="rect" style="opacity:.8;fill:#a0a0a0;stroke:#000;stroke-width:.44"/><rect id="2_7" width="32" height="1" x="170" y="507" class="rect" style="opacity:.8;fill:#e0e0e0;stroke:#000;stroke-width:.44"/><rect id="2_8" width="32" height="1" x="172" y="509" class="rect" style="opacity:.8;fill:#a0a0a0;stroke:#000;stroke-width:.44"/><rect id="2_9" width="32" height="1" x="174" y="511" class="rect" style="opacity:.8;fill:#e0e0e0;stroke:#000;stroke-width:.44"/><rect id="2_10" width="32" height="1" x="176" y="513" class="rect" style="opacity:.8;fill:#a0a0a0;stroke:#000;stroke-width:.44"/><rect id="2_11" width="32" height="1" x="178" y="515" class="rect" style="opacity:.8;fill:#e0e0e0;stroke:#000;stroke-width:.44"/><rect id="3_0" width="9" height="1" x="211" y="480.5" class="rect" style="opacity:.8;fill:#a0a0a0;stroke:#000;stroke-width:.44"/><rect id="3_1" width="9" height="1" x="213" y="482.5" class="rect" style="opacity:.8;fill:#e0e0e0;stroke:#000;stroke-width:.44"/><rect id="3_2" width="9" height="1" x="215" y="484.5" class="rect" style="opacity:.8;fill:#a0a0a0;stroke:#000;stroke-width:.44"/><rect id="3_3" width="9" height="1" x="217" y="486.5" class="rect" style="opacity:.8;fill:#e0e0e0;stroke:#000;stroke-width:.44"/><rect id="3_4" width="9" height="1" x="219" y="488.5" class="rect" style="opacity:.8;fill:#a0a0a0;stroke:#000;stroke-width:.44"/><rect id="3_5" width="9" height="1" x="221" y="490.5" class="rect" style="opacity:.8;fill:#e0e0e0;stroke:#000;stroke-width:.44"/><rect id="3_6" width="9" height="1" x="223" y="492.5" class="rect" style="opacity:.8;fill:#a0a0a0;stroke:#000;stroke-width:.44"/><rect id="3_7" width="9" height="1" x="225" y="494.5" class="rect" style="opacity:.8;fill:#e0e0e0;stroke:#000;stroke-width:.44"/><rect id="3_8" width="9" height="1" x="227" y="496.5" class="rect" style="opacity:.8;fill:#a0a0a0;stroke:#000;stroke-width:.44"/><rect id="3_9" width="9" height="1" x="229" y="498.5" class="rect" style="opacity:.8;fill:#e0e0e0;stroke:#000;stroke-width:.44"/><rect id="3_10" width="9" height="1" x="231" y="500.5" class="rect" style="opacity:.8;fill:#a0a0a0;stroke:#000;stroke-width:.44"/><rect id="3_11" width="9" height="1" x="233" y="502.5" class="rect" style="opacity:.8;fill:#e0e0e0;stroke:#000;stroke-width:.44"/><rect id="3_12" width="9" height="1" x="235" y="504.5" class="rect" style="opacity:.8;fill:#a0a0a0;stroke:#000;stroke-width:.44"/><rect id="3_13" width="9" height="1" x="237" y="506.5" class="rect" style="opacity:.8;fill:#e0e0e0;stroke:#000;stroke-width:.44"/><rect id="3_14" width="9" height="1" x="239" y="508.5" class="rect" style="opacity:.8;fill:#a0a0a0;stroke:#000;stroke-width:.44"/><rect id="3_15" width="9" height="1" x="241" y="510.5" class="rect" style="opacity:.8;fill:#e0e0e0;stroke:#000;stroke-width:.44"/><rect id="3_16" width="9" height="1" x="243" y="512.5" class="rect" style="opacity:.8;fill:#a0a0a0;stroke:#000;stroke-width:.44"/><rect id="3_17" width="9" height="1" x="245" y="514.5" class="rect" style="opacity:.8;fill:#e0e0e0;stroke:#000;stroke-width:.44"/><rect id="3_18" width="9" height="1" x="247" y="516.5" class="rect" style="opacity:.8;fill:#a0a0a0;stroke:#000;stroke-width:.44"/><rect id="3_19" width="9" height="1" x="249" y="518.5" class="rect" style="opacity:.8;fill:#e0e0e0;stroke:#000;stroke-width:.44"/><rect id="3_20" width="9" height="1" x="251" y="520.5" class="rect" style="opacity:.8;fill:#a0a0a0;stroke:#000;stroke-width:.44"/><rect id="3_21" width="9" height="1" x="253" y="522.5" class="rect" style="opacity:.8;fill:#e0e0e0;stroke:#000;stroke-width:.44"/><rect id="3_22" width="9" height="1" x="255" y="524.5" class="rect" style="opacity:.8;fill:#a0a0a0;stroke:#000;stroke-width:.44"/><rect id="3_23" width="9" height="1" x="257" y="526.5" class="rect" style="opacity:.8;fill:#e0e0e0;stroke:#000;stroke-width:.44"/><rect id="3_24" width="9" height="1" x="259" y="528.5" class="rect" style="opacity:.8;fill:#a0a0a0;stroke:#000;stroke-width:.44"/><rect id="3_25" width="9" height="1" x="261" y="530.5" class="rect" style="opacity:.8;fill:#e0e0e0;stroke:#000;stroke-width:.44"/><rect id="3_26" width="9" height="1" x="263" y="532.5" class="rect" style="opacity:.8;fill:#a0a0a0;stroke:#000;stroke-width:.44"/><rect id="3_27" width="9" height="1" x="265" y="534.5" class="rect" style="opacity:.8;fill:#e0e0e0;stroke:#000;stroke-width:.44"/><rect id="3_28" width="9" height="1" x="267" y="536.5" class="rect" style="opacity:.8;fill:#a0a0a0;stroke:#000;stroke-width:.44"/><rect id="3_29" width="9" height="1" x="269" y="538.5" class="rect" style="opacity:.8;fill:#e0e0e0;stroke:#000;stroke-width:.44"/><rect id="3_30" width="9" height="1" x="271" y="540.5" class="rect" style="opacity:.8;fill:#a0a0a0;stroke:#000;stroke-width:.44"/><rect id="3_31" width="9" height="1" x="273" y="542.5" class="rect" style="opacity:.8;fill:#e0e0e0;stroke:#000;stroke-width:.44"/><rect id="3_32" width="9" height="1" x="275" y="544.5" class="rect" style="opacity:.8;fill:#a0a0a0;stroke:#000;stroke-width:.44"/><rect id="3_33" width="9" height="1" x="277" y="546.5" class="rect" style="opacity:.8;fill:#e0e0e0;stroke:#000;stroke-width:.44"/><rect id="3_34" width="9" height="1" x="279" y="548.5" class="rect" style="opacity:.8;fill:#a0a0a0;stroke:#000;stroke-width:.44"/><rect id="3_35" width="9" height="1" x="281" y="550.5" class="rect" style="opacity:.8;fill:#e0e0e0;stroke:#000;stroke-width:.44"/><rect id="4_0" width="3" height="1" x="226" y="429.5" class="rect" style="opacity:.8;fill:#a0a0a0;stroke:#000;stroke-width:.44"/><rect id="4_1" width="3" height="1" x="228" y="431.5" class="rect" style="opacity:.8;fill:#e0e0e0;stroke:#000;stroke-width:.44"/><rect id="4_2" width="3" height="1" x="230" y="433.5" class="rect" style="opacity:.8;fill:#a0a0a0;stroke:#000;stroke-width:.44"/><rect id="4_3" width="3" height="1" x="232" y="435.5" class="rect" style="opacity:.8;fill:#e0e0e0;stroke:#000;stroke-width:.44"/><rect id="4_4" width="3" height="1" x="234" y="437.5" class="rect" style="opacity:.8;fill:#a0a0a0;stroke:#000;stroke-width:.44"/><rect id="4_5" width="3" height="1" x="236" y="439.5" class="rect" style="opacity:.8;fill:#e0e0e0;stroke:#000;stroke-width:.44"/><rect id="4_6" width="3" height="1" x="238" y="441.5" class="rect" style="opacity:.8;fill:#a0a0a0;stroke:#000;stroke-width:.44"/><rect id="4_7" width="3" height="1" x="240" y="443.5" class="rect" style="opacity:.8;fill:#e0e0e0;stroke:#000;stroke-width:.44"/><rect id="4_8" width="3" height="1" x="242" y="445.5" class="rect" style="opacity:.8;fill:#a0a0a0;stroke:#000;stroke-width:.44"/><rect id="4_9" width="3" height="1" x="244" y="447.5" class="rect" style="opacity:.8;fill:#e0e0e0;stroke:#000;stroke-width:.44"/><rect id="4_10" width="3" height="1" x="246" y="449.5" class="rect" style="opacity:.8;fill:#a0a0a0;stroke:#000;stroke-width:.44"/><rect id="4_11" width="3" height="1" x="248" y="451.5" class="rect" style="opacity:.8;fill:#e0e0e0;stroke:#000;stroke-width:.44"/><rect id="4_12" width="3" height="1" x="250" y="453.5" class="rect" style="opacity:.8;fill:#a0a0a0;stroke:#000;stroke-width:.44"/><rect id="4_13" width="3" height="1" x="252" y="455.5" class="rect" style="opacity:.8;fill:#e0e0e0;stroke:#000;stroke-width:.44"/><rect id="4_14" width="3" height="1" x="254" y="457.5" class="rect" style="opacity:.8;fill:#a0a0a0;stroke:#000;stroke-width:.44"/><rect id="4_15" width="3" height="1" x="256" y="459.5" class="rect" style="opacity:.8;fill:#e0e0e0;stroke:#000;stroke-width:.44"/><rect id="4_16" width="3" height="1" x="258" y="461.5" class="rect" style="opacity:.8;fill:#a0a0a0;stroke:#000;stroke-width:.44"/><rect id="4_17" width="3" height="1" x="260" y="463.5" class="rect" style="opacity:.8;fill:#e0e0e0;stroke:#000;stroke-width:.44"/><rect id="4_18" width="3" height="1" x="262" y="465.5" class="rect" style="opacity:.8;fill:#a0a0a0;stroke:#000;stroke-width:.44"/><rect id="4_19" width="3" height="1" x="264" y="467.5" class="rect" style="opacity:.8;fill:#e0e0e0;stroke:#000;stroke-width:.44"/><rect id="4_20" width="3" height="1" x="266" y="469.5" class="rect" style="opacity:.8;fill:#a0a0a0;stroke:#000;stroke-width:.44"/><rect id="4_21" width="3" height="1" x="268" y="471.5" class="rect" style="opacity:.8;fill:#e0e0e0;stroke:#000;stroke-width:.44"/><rect id="4_22" width="3" height="1" x="270" y="473.5" class="rect" style="opacity:.8;fill:#a0a0a0;stroke:#000;stroke-width:.44"/><rect id="4_23" width="3" height="1" x="272" y="475.5" class="rect" style="opacity:.8;fill:#e0e0e0;stroke:#000;stroke-width:.44"/><rect id="4_24" width="3" height="1" x="274" y="477.5" class="rect" style="opacity:.8;fill:#a0a0a0;stroke:#000;stroke-width:.44"/><rect id="4_25" width="3" height="1" x="276" y="479.5" class="rect" style="opacity:.8;fill:#e0e0e0;stroke:#000;stroke-width:.44"/><rect id="4_26" width="3" height="1" x="278" y="481.5" class="rect" style="opacity:.8;fill:#a0a0a0;stroke:#000;stroke-width:.44"/><rect id="4_27" width="3" height="1" x="280" y="483.5" class="rect" style="opacity:.8;fill:#e0e0e0;stroke:#000;stroke-width:.44"/><rect id="4_28" width="3" height="1" x="282" y="485.5" class="rect" style="opacity:.8;fill:#a0a0a0;stroke:#000;stroke-width:.44"/><rect id="4_29" width="3" height="1" x="284" y="487.5" class="rect" style="opacity:.8;fill:#e0e0e0;stroke:#000;stroke-width:.44"/><rect id="4_30" width="3" height="1" x="286" y="489.5" class="rect" style="opacity:.8;fill:#a0a0a0;stroke:#000;stroke-width:.44"/><rect id="4_31" width="3" height="1" x="288" y="491.5" class="rect" style="opacity:.8;fill:#e0e0e0;stroke:#000;stroke-width:.44"/><rect id="4_32" width="3" height="1" x="290" y="493.5" class="rect" style="opacity:.8;fill:#a0a0a0;stroke:#000;stroke-width:.44"/><rect id="4_33" width="3" height="1" x="292" y="495.5" class="rect" style="opacity:.8;fill:#e0e0e0;stroke:#000;stroke-width:.44"/><rect id="4_34" width="3" height="1" x="294" y="497.5" class="rect" style="opacity:.8;fill:#a0a0a0;stroke:#000;stroke-width:.44"/><rect id="4_35" width="3" height="1" x="296" y="499.5" class="rect" style="opacity:.8;fill:#e0e0e0;stroke:#000;stroke-width:.44"/><rect id="4_36" width="3" height="1" x="298" y="501.5" class="rect" style="opacity:.8;fill:#a0a0a0;stroke:#000;stroke-width:.44"/><rect id="4_37" width="3" height="1" x="300" y="503.5" class="rect" style="opacity:.8;fill:#e0e0e0;stroke:#000;stroke-width:.44"/><rect id="4_38" width="3" height="1" x="302" y="505.5" class="rect" style="opacity:.8;fill:#a0a0a0;stroke:#000;stroke-width:.44"/><rect id="4_39" width="3" height="1" x="304" y="507.5" class="rect" style="opacity:.8;fill:#e0e0e0;stroke:#000;stroke-width:.44"/><rect id="4_40" width="3" height="1" x="306" y="509.5" class="rect" style="opacity:.8;fill:#a0a0a0;stroke:#000;stroke-width:.44"/><rect id="4_41" width="3" height="1" x="308" y="511.5" class="rect" style="opacity:.8;fill:#e0e0e0;stroke:#000;stroke-width:.44"/><rect id="4_42" width="3" height="1" x="310" y="513.5" class="rect" style="opacity:.8;fill:#a0a0a0;stroke:#000;stroke-width:.44"/><rect id="4_43" width="3" height="1" x="312" y="515.5" class="rect" style="opacity:.8;fill:#e0e0e0;stroke:#000;stroke-width:.44"/><rect id="4_44" width="3" height="1" x="314" y="517.5" class="rect" style="opacity:.8;fill:#a0a0a0;stroke:#000;stroke-width:.44"/><rect id="4_45" width="3" height="1" x="316" y="519.5" class="rect" style="opacity:.8;fill:#e0e0e0;stroke:#000;stroke-width:.44"/><rect id="4_46" width="3" height="1" x="318" y="521.5" class="rect" style="opacity:.8;fill:#a0a0a0;stroke:#000;stroke-width:.44"/><rect id="4_47" width="3" height="1" x="320" y="523.5" class="rect" style="opacity:.8;fill:#e0e0e0;stroke:#000;stroke-width:.44"/><rect id="4_48" width="3" height="1" x="322" y="525.5" class="rect" style="opacity:.8;fill:#a0a0a0;stroke:#000;stroke-width:.44"/><rect id="4_49" width="3" height="1" x="324" y="527.5" class="rect" style="opacity:.8;fill:#e0e0e0;stroke:#000;stroke-width:.44"/><rect id="4_50" width="3" height="1" x="326" y="529.5" class="rect" style="opacity:.8;fill:#a0a0a0;stroke:#000;stroke-width:.44"/><rect id="4_51" width="3" height="1" x="328" y="531.5" class="rect" style="opacity:.8;fill:#e0e0e0;stroke:#000;stroke-width:.44"/><rect id="4_52" width="3" height="1" x="330" y="533.5" class="rect" style="opacity:.8;fill:#a0a0a0;stroke:#000;stroke-width:.44"/><rect id="4_53" width="3" height="1" x="332" y="535.5" class="rect" style="opacity:.8;fill:#e0e0e0;stroke:#000;stroke-width:.44"/><rect id="4_54" width="3" height="1" x="334" y="537.5" class="rect" style="opacity:.8;fill:#a0a0a0;stroke:#000;stroke-width:.44"/><rect id="4_55" width="3" height="1" x="336" y="539.5" class="rect" style="opacity:.8;fill:#e0e0e0;stroke:#000;stroke-width:.44"/><rect id="4_56" width="3" height="1" x="338" y="541.5" class="rect" style="opacity:.8;fill:#a0a0a0;stroke:#000;stroke-width:.44"/><rect id="4_57" width="3" height="1" x="340" y="543.5" class="rect" style="opacity:.8;fill:#e0e0e0;stroke:#000;stroke-width:.44"/><rect id="4_58" width="3" height="1" x="342" y="545.5" class="rect" style="opacity:.8;fill:#a0a0a0;stroke:#000;stroke-width:.44"/><rect id="4_59" width="3" height="1" x="344" y="547.5" class="rect" style="opacity:.8;fill:#e0e0e0;stroke:#000;stroke-width:.44"/><rect id="4_60" width="3" height="1" x="346" y="549.5" class="rect" style="opacity:.8;fill:#a0a0a0;stroke:#000;stroke-width:.44"/><rect id="4_61" width="3" height="1" x="348" y="551.5" class="rect" style="opacity:.8;fill:#e0e0e0;stroke:#000;stroke-width:.44"/><rect id="4_62" width="3" height="1" x="350" y="553.5" class="rect" style="opacity:.8;fill:#a0a0a0;stroke:#000;stroke-width:.44"/><rect id="4_63" width="3" height="1" x="352" y="555.5" class="rect" style="opacity:.8;fill:#e0e0e0;stroke:#000;stroke-width:.44"/><rect id="4_64" width="3" height="1" x="354" y="557.5" class="rect" style="opacity:.8;fill:#a0a0a0;stroke:#000;stroke-width:.44"/><rect id="4_65" width="3" height="1" x="356" y="559.5" class="rect" style="opacity:.8;fill:#e0e0e0;stroke:#000;stroke-width:.44"/><rect id="4_66" width="3" height="1" x="358" y="561.5" class="rect" style="opacity:.8;fill:#a0a0a0;stroke:#000;stroke-width:.44"/><rect id="4_67" width="3" height="1" x="360" y="563.5" class="rect" style="opacity:.8;fill:#e0e0e0;stroke:#000;stroke-width:.44"/><rect id="4_68" width="3" height="1" x="362" y="565.5" class="rect" style="opacity:.8;fill:#a0a0a0;stroke:#000;stroke-width:.44"/><rect id="4_69" width="3" height="1" x="364" y="567.5" class="rect" style="opacity:.8;fill:#e0e0e0;stroke:#000;stroke-width:.44"/><rect id="4_70" width="3" height="1" x="366" y="569.5" class="rect" style="opacity:.8;fill:#a0a0a0;stroke:#000;stroke-width:.44"/><rect id="4_71" width="3" height="1" x="368" y="571.5" class="rect" style="opacity:.8;fill:#e0e0e0;stroke:#000;stroke-width:.44"/><rect id="4_72" width="3" height="1" x="370" y="573.5" class="rect" style="opacity:.8;fill:#a0a0a0;stroke:#000;stroke-width:.44"/><rect id="4_73" width="3" height="1" x="372" y="575.5" class="rect" style="opacity:.8;fill:#e0e0e0;stroke:#000;stroke-width:.44"/><rect id="4_74" width="3" height="1" x="374" y="577.5" class="rect" style="opacity:.8;fill:#a0a0a0;stroke:#000;stroke-width:.44"/><rect id="4_75" width="3" height="1" x="376" y="579.5" class="rect" style="opacity:.8;fill:#e0e0e0;stroke:#000;stroke-width:.44"/><rect id="4_76" width="3" height="1" x="378" y="581.5" class="rect" style="opacity:.8;fill:#a0a0a0;stroke:#000;stroke-width:.44"/><rect id="4_77" width="3" height="1" x="380" y="583.5" class="rect" style="opacity:.8;fill:#e0e0e0;stroke:#000;stroke-width:.44"/><rect id="4_78" width="3" height="1" x="382" y="585.5" class="rect" style="opacity:.8;fill:#a0a0a0;stroke:#000;stroke-width:.44"/><rect id="4_79" width="3" height="1" x="384" y="587.5" class="rect" style="opacity:.8;fill:#e0e0e0;stroke:#000;stroke-width:.44"/><rect id="4_80" width="3" height="1" x="386" y="589.5" class="rect" style="opacity:.8;fill:#a0a0a0;stroke:#000;stroke-width:.44"/><rect id="4_81" width="3" height="1" x="388" y="591.5" class="rect" style="opacity:.8;fill:#e0e0e0;stroke:#000;stroke-width:.44"/><rect id="4_82" width="3" height="1" x="390" y="593.5" class="rect" style="opacity:.8;fill:#a0a0a0;stroke:#000;stroke-width:.44"/><rect id="4_83" width="3" height="1" x="392" y="595.5" class="rect" style="opacity:.8;fill:#e0e0e0;stroke:#000;stroke-width:.44"/><rect id="4_84" width="3" height="1" x="394" y="597.5" class="rect" style="opacity:.8;fill:#a0a0a0;stroke:#000;stroke-width:.44"/><rect id="4_85" width="3" height="1" x="396" y="599.5" class="rect" style="opacity:.8;fill:#e0e0e0;stroke:#000;stroke-width:.44"/><rect id="4_86" width="3" height="1" x="398" y="601.5" class="rect" style="opacity:.8;fill:#a0a0a0;stroke:#000;stroke-width:.44"/><rect id="4_87" width="3" height="1" x="400" y="603.5" class="rect" style="opacity:.8;fill:#e0e0e0;stroke:#000;stroke-width:.44"/><rect id="4_88" width="3" height="1" x="402" y="605.5" class="rect" style="opacity:.8;fill:#a0a0a0;stroke:#000;stroke-width:.44"/><rect id="4_89" width="3" height="1" x="404" y="607.5" class="rect" style="opacity:.8;fill:#e0e0e0;stroke:#000;stroke-width:.44"/><rect id="5_0" width="1" height="1" x="272.139" y="368.984" class="rect" style="opacity:.8;fill:#a0a0a0;stroke:#000;stroke-width:.44"/><rect id="5_1" width="1" height="1" x="274.139" y="370.984" class="rect" style="opacity:.8;fill:#e0e0e0;stroke:#000;stroke-width:.44"/><rect id="5_2" width="1" height="1" x="276.139" y="372.984" class="rect" style="opacity:.8;fill:#a0a0a0;stroke:#000;stroke-width:.44"/><rect id="5_3" width="1" height="1" x="278.139" y="374.984" class="rect" style="opacity:.8;fill:#e0e0e0;stroke:#000;stroke-width:.44"/><rect id="5_4" width="1" height="1" x="280.139" y="376.984" class="rect" style="opacity:.8;fill:#a0a0a0;stroke:#000;stroke-width:.44"/><rect id="5_5" width="1" height="1" x="282.139" y="378.984" class="rect" style="opacity:.8;fill:#e0e0e0;stroke:#000;stroke-width:.44"/><rect id="5_6" width="1" height="1" x="284.139" y="380.984" class="rect" style="opacity:.8;fill:#a0a0a0;stroke:#000;stroke-width:.44"/><rect id="5_7" width="1" height="1" x="286.139" y="382.984" class="rect" style="opacity:.8;fill:#e0e0e0;stroke:#000;stroke-width:.44"/><rect id="5_8" width="1" height="1" x="288.139" y="384.984" class="rect" style="opacity:.8;fill:#a0a0a0;stroke:#000;stroke-width:.44"/><rect id="5_9" width="1" height="1" x="290.139" y="386.984" class="rect" style="opacity:.8;fill:#e0e0e0;stroke:#000;stroke-width:.44"/><rect id="5_10" width="1" height="1" x="292.139" y="388.984" class="rect" style="opacity:.8;fill:#a0a0a0;stroke:#000;stroke-width:.44"/><rect id="5_11" width="1" height="1" x="294.139" y="390.984" class="rect" style="opacity:.8;fill:#e0e0e0;stroke:#000;stroke-width:.44"/><rect id="5_12" width="1" height="1" x="296.139" y="392.984" class="rect" style="opacity:.8;fill:#a0a0a0;stroke:#000;stroke-width:.44"/><rect id="5_13" width="1" height="1" x="298.139" y="394.984" class="rect" style="opacity:.8;fill:#e0e0e0;stroke:#000;stroke-width:.44"/><rect id="5_14" width="1" height="1" x="300.139" y="396.984" class="rect" style="opacity:.8;fill:#a0a0a0;stroke:#000;stroke-width:.44"/><rect id="5_15" width="1" height="1" x="302.139" y="398.984" class="rect" style="opacity:.8;fill:#e0e0e0;stroke:#000;stroke-width:.44"/><rect id="5_16" width="1" height="1" x="304.139" y="400.984" class="rect" style="opacity:.8;fill:#a0a0a0;stroke:#000;stroke-width:.44"/><rect id="5_17" width="1" height="1" x="306.139" y="402.984" class="rect" style="opacity:.8;fill:#e0e0e0;stroke:#000;stroke-width:.44"/><rect id="5_18" width="1" height="1" x="308.139" y="404.984" class="rect" style="opacity:.8;fill:#a0a0a0;stroke:#000;stroke-width:.44"/><rect id="5_19" width="1" height="1" x="310.139" y="406.984" class="rect" style="opacity:.8;fill:#e0e0e0;stroke:#000;stroke-width:.44"/><rect id="5_20" width="1" height="1" x="312.139" y="408.984" class="rect" style="opacity:.8;fill:#a0a0a0;stroke:#000;stroke-width:.44"/><rect id="5_21" width="1" height="1" x="314.139" y="410.984" class="rect" style="opacity:.8;fill:#e0e0e0;stroke:#000;stroke-width:.44"/><rect id="5_22" width="1" height="1" x="316.139" y="412.984" class="rect" style="opacity:.8;fill:#a0a0a0;stroke:#000;stroke-width:.44"/><rect id="5_23" width="1" height="1" x="318.139" y="414.984" class="rect" style="opacity:.8;fill:#e0e0e0;stroke:#000;stroke-width:.44"/><rect id="5_24" width="1" height="1" x="320.139" y="416.984" class="rect" style="opacity:.8;fill:#a0a0a0;stroke:#000;stroke-width:.44"/><rect id="5_25" width="1" height="1" x="322.139" y="418.984" class="rect" style="opacity:.8;fill:#e0e0e0;stroke:#000;stroke-width:.44"/><rect id="5_26" width="1" height="1" x="324.139" y="420.984" class="rect" style="opacity:.8;fill:#a0a0a0;stroke:#000;stroke-width:.44"/><rect id="5_27" width="1" height="1" x="326.139" y="422.984" class="rect" style="opacity:.8;fill:#e0e0e0;stroke:#000;stroke-width:.44"/><rect id="5_28" width="1" height="1" x="328.139" y="424.984" class="rect" style="opacity:.8;fill:#a0a0a0;stroke:#000;stroke-width:.44"/><rect id="5_29" width="1" height="1" x="330.139" y="426.984" class="rect" style="opacity:.8;fill:#e0e0e0;stroke:#000;stroke-width:.44"/><rect id="5_30" width="1" height="1" x="332.139" y="428.984" class="rect" style="opacity:.8;fill:#a0a0a0;stroke:#000;stroke-width:.44"/><rect id="5_31" width="1" height="1" x="334.139" y="430.984" class="rect" style="opacity:.8;fill:#e0e0e0;stroke:#000;stroke-width:.44"/><rect id="5_32" width="1" height="1" x="336.139" y="432.984" class="rect" style="opacity:.8;fill:#a0a0a0;stroke:#000;stroke-width:.44"/><rect id="5_33" width="1" height="1" x="338.139" y="434.984" class="rect" style="opacity:.8;fill:#e0e0e0;stroke:#000;stroke-width:.44"/><rect id="5_34" width="1" height="1" x="340.139" y="436.984" class="rect" style="opacity:.8;fill:#a0a0a0;stroke:#000;stroke-width:.44"/><rect id="5_35" width="1" height="1" x="342.139" y="438.984" class="rect" style="opacity:.8;fill:#e0e0e0;stroke:#000;stroke-width:.44"/><rect id="5_36" width="1" height="1" x="344.139" y="440.984" class="rect" style="opacity:.8;fill:#a0a0a0;stroke:#000;stroke-width:.44"/><rect id="5_37" width="1" height="1" x="346.139" y="442.984" class="rect" style="opacity:.8;fill:#e0e0e0;stroke:#000;stroke-width:.44"/><rect id="5_38" width="1" height="1" x="348.139" y="444.984" class="rect" style="opacity:.8;fill:#a0a0a0;stroke:#000;stroke-width:.44"/><rect id="5_39" width="1" height="1" x="350.139" y="446.984" class="rect" style="opacity:.8;fill:#e0e0e0;stroke:#000;stroke-width:.44"/><rect id="5_40" width="1" height="1" x="352.139" y="448.984" class="rect" style="opacity:.8;fill:#a0a0a0;stroke:#000;stroke-width:.44"/><rect id="5_41" width="1" height="1" x="354.139" y="450.984" class="rect" style="opacity:.8;fill:#e0e0e0;stroke:#000;stroke-width:.44"/><rect id="5_42" width="1" height="1" x="356.139" y="452.984" class="rect" style="opacity:.8;fill:#a0a0a0;stroke:#000;stroke-width:.44"/><rect id="5_43" width="1" height="1" x="358.139" y="454.984" class="rect" style="opacity:.8;fill:#e0e0e0;stroke:#000;stroke-width:.44"/><rect id="5_44" width="1" height="1" x="360.139" y="456.984" class="rect" style="opacity:.8;fill:#a0a0a0;stroke:#000;stroke-width:.44"/><rect id="5_45" width="1" height="1" x="362.139" y="458.984" class="rect" style="opacity:.8;fill:#e0e0e0;stroke:#000;stroke-width:.44"/><rect id="5_46" width="1" height="1" x="364.139" y="460.984" class="rect" style="opacity:.8;fill:#a0a0a0;stroke:#000;stroke-width:.44"/><rect id="5_47" width="1" height="1" x="366.139" y="462.984" class="rect" style="opacity:.8;fill:#e0e0e0;stroke:#000;stroke-width:.44"/><rect id="5_48" width="1" height="1" x="368.139" y="464.984" class="rect" style="opacity:.8;fill:#a0a0a0;stroke:#000;stroke-width:.44"/><rect id="5_49" width="1" height="1" x="370.139" y="466.984" class="rect" style="opacity:.8;fill:#e0e0e0;stroke:#000;stroke-width:.44"/><rect id="5_50" width="1" height="1" x="372.139" y="468.984" class="rect" style="opacity:.8;fill:#a0a0a0;stroke:#000;stroke-width:.44"/><rect id="5_51" width="1" height="1" x="374.139" y="470.984" class="rect" style="opacity:.8;fill:#e0e0e0;stroke:#000;stroke-width:.44"/><rect id="5_52" width="1" height="1" x="376.139" y="472.984" class="rect" style="opacity:.8;fill:#a0a0a0;stroke:#000;stroke-width:.44"/><rect id="5_53" width="1" height="1" x="378.139" y="474.984" class="rect" style="opacity:.8;fill:#e0e0e0;stroke:#000;stroke-width:.44"/><rect id="5_54" width="1" height="1" x="380.139" y="476.984" class="rect" style="opacity:.8;fill:#a0a0a0;stroke:#000;stroke-width:.44"/><rect id="5_55" width="1" height="1" x="382.139" y="478.984" class="rect" style="opacity:.8;fill:#e0e0e0;stroke:#000;stroke-width:.44"/><rect id="5_56" width="1" height="1" x="384.139" y="480.984" class="rect" style="opacity:.8;fill:#a0a0a0;stroke:#000;stroke-width:.44"/><rect id="5_57" width="1" height="1" x="386.139" y="482.984" class="rect" style="opacity:.8;fill:#e0e0e0;stroke:#000;stroke-width:.44"/><rect id="5_58" width="1" height="1" x="388.139" y="484.984" class="rect" style="opacity:.8;fill:#a0a0a0;stroke:#000;stroke-width:.44"/><rect id="5_59" width="1" height="1" x="390.139" y="486.984" class="rect" style="opacity:.8;fill:#e0e0e0;stroke:#000;stroke-width:.44"/><rect id="5_60" width="1" height="1" x="392.139" y="488.984" class="rect" style="opacity:.8;fill:#a0a0a0;stroke:#000;stroke-width:.44"/><rect id="5_61" width="1" height="1" x="394.139" y="490.984" class="rect" style="opacity:.8;fill:#e0e0e0;stroke:#000;stroke-width:.44"/><rect id="5_62" width="1" height="1" x="396.139" y="492.984" class="rect" style="opacity:.8;fill:#a0a0a0;stroke:#000;stroke-width:.44"/><rect id="5_63" width="1" height="1" x="398.139" y="494.984" class="rect" style="opacity:.8;fill:#e0e0e0;stroke:#000;stroke-width:.44"/><rect id="5_64" width="1" height="1" x="400.139" y="496.984" class="rect" style="opacity:.8;fill:#a0a0a0;stroke:#000;stroke-width:.44"/><rect id="5_65" width="1" height="1" x="402.139" y="498.984" class="rect" style="opacity:.8;fill:#e0e0e0;stroke:#000;stroke-width:.44"/><rect id="5_66" width="1" height="1" x="404.139" y="500.984" class="rect" style="opacity:.8;fill:#a0a0a0;stroke:#000;stroke-width:.44"/><rect id="5_67" width="1" height="1" x="406.139" y="502.984" class="rect" style="opacity:.8;fill:#e0e0e0;stroke:#000;stroke-width:.44"/><rect id="5_68" width="1" height="1" x="408.139" y="504.984" class="rect" style="opacity:.8;fill:#a0a0a0;stroke:#000;stroke-width:.44"/><rect id="5_69" width="1" height="1" x="410.139" y="506.984" class="rect" style="opacity:.8;fill:#e0e0e0;stroke:#000;stroke-width:.44"/><rect id="5_70" width="1" height="1" x="412.139" y="508.984" class="rect" style="opacity:.8;fill:#a0a0a0;stroke:#000;stroke-width:.44"/><rect id="5_71" width="1" height="1" x="414.139" y="510.984" class="rect" style="opacity:.8;fill:#e0e0e0;stroke:#000;stroke-width:.44"/><rect id="5_72" width="1" height="1" x="416.139" y="512.984" class="rect" style="opacity:.8;fill:#a0a0a0;stroke:#000;stroke-width:.44"/><rect id="5_73" width="1" height="1" x="418.139" y="514.984" class="rect" style="opacity:.8;fill:#e0e0e0;stroke:#000;stroke-width:.44"/><rect id="5_74" width="1" height="1" x="420.139" y="516.984" class="rect" style="opacity:.8;fill:#a0a0a0;stroke:#000;stroke-width:.44"/><rect id="5_75" width="1" height="1" x="422.139" y="518.984" class="rect" style="opacity:.8;fill:#e0e0e0;stroke:#000;stroke-width:.44"/><rect id="5_76" width="1" height="1" x="424.139" y="520.984" class="rect" style="opacity:.8;fill:#a0a0a0;stroke:#000;stroke-width:.44"/><rect id="5_77" width="1" height="1" x="426.139" y="522.984" class="rect" style="opacity:.8;fill:#e0e0e0;stroke:#000;stroke-width:.44"/><rect id="5_78" width="1" height="1" x="428.139" y="524.984" class="rect" style="opacity:.8;fill:#a0a0a0;stroke:#000;stroke-width:.44"/><rect id="5_79" width="1" height="1" x="430.139" y="526.984" class="rect" style="opacity:.8;fill:#e0e0e0;stroke:#000;stroke-width:.44"/><rect id="5_80" width="1" height="1" x="432.139" y="528.984" class="rect" style="opacity:.8;fill:#a0a0a0;stroke:#000;stroke-width:.44"/><rect id="5_81" width="1" height="1" x="434.139" y="530.984" class="rect" style="opacity:.8;fill:#e0e0e0;stroke:#000;stroke-width:.44"/><rect id="5_82" width="1" height="1" x="436.139" y="532.984" class="rect" style="opacity:.8;fill:#a0a0a0;stroke:#000;stroke-width:.44"/><rect id="5_83" width="1" height="1" x="438.139" y="534.984" class="rect" style="opacity:.8;fill:#e0e0e0;stroke:#000;stroke-width:.44"/><rect id="5_84" width="1" height="1" x="440.139" y="536.984" class="rect" style="opacity:.8;fill:#a0a0a0;stroke:#000;stroke-width:.44"/><rect id="5_85" width="1" height="1" x="442.139" y="538.984" class="rect" style="opacity:.8;fill:#e0e0e0;stroke:#000;stroke-width:.44"/><rect id="5_86" width="1" height="1" x="444.139" y="540.984" class="rect" style="opacity:.8;fill:#a0a0a0;stroke:#000;stroke-width:.44"/><rect id="5_87" width="1" height="1" x="446.139" y="542.984" class="rect" style="opacity:.8;fill:#e0e0e0;stroke:#000;stroke-width:.44"/><rect id="5_88" width="1" height="1" x="448.139" y="544.984" class="rect" style="opacity:.8;fill:#a0a0a0;stroke:#000;stroke-width:.44"/><rect id="5_89" width="1" height="1" x="450.139" y="546.984" class="rect" style="opacity:.8;fill:#e0e0e0;stroke:#000;stroke-width:.44"/><rect id="5_90" width="1" height="1" x="452.139" y="548.984" class="rect" style="opacity:.8;fill:#a0a0a0;stroke:#000;stroke-width:.44"/><rect id="5_91" width="1" height="1" x="454.139" y="550.984" class="rect" style="opacity:.8;fill:#e0e0e0;stroke:#000;stroke-width:.44"/><rect id="5_92" width="1" height="1" x="456.139" y="552.984" class="rect" style="opacity:.8;fill:#a0a0a0;stroke:#000;stroke-width:.44"/><rect id="5_93" width="1" height="1" x="458.139" y="554.984" class="rect" style="opacity:.8;fill:#e0e0e0;stroke:#000;stroke-width:.44"/><rect id="5_94" width="1" height="1" x="460.139" y="556.984" class="rect" style="opacity:.8;fill:#a0a0a0;stroke:#000;stroke-width:.44"/><rect id="5_95" width="1" height="1" x="462.139" y="558.984" class="rect" style="opacity:.8;fill:#e0e0e0;stroke:#000;stroke-width:.44"/><rect id="5_96" width="1" height="1" x="464.139" y="560.984" class="rect" style="opacity:.8;fill:#a0a0a0;stroke:#000;stroke-width:.44"/><rect id="5_97" width="1" height="1" x="466.139" y="562.984" class="rect" style="opacity:.8;fill:#e0e0e0;stroke:#000;stroke-width:.44"/><rect id="5_98" width="1" height="1" x="468.139" y="564.984" class="rect" style="opacity:.8;fill:#a0a0a0;stroke:#000;stroke-width:.44"/><rect id="5_99" width="1" height="1" x="470.139" y="566.984" class="rect" style="opacity:.8;fill:#e0e0e0;stroke:#000;stroke-width:.44"/><rect id="5_100" width="1" height="1" x="472.139" y="568.984" class="rect" style="opacity:.8;fill:#a0a0a0;stroke:#000;stroke-width:.44"/><rect id="5_101" width="1" height="1" x="474.139" y="570.984" class="rect" style="opacity:.8;fill:#e0e0e0;stroke:#000;stroke-width:.44"/><rect id="5_102" width="1" height="1" x="476.139" y="572.984" class="rect" style="opacity:.8;fill:#a0a0a0;stroke:#000;stroke-width:.44"/><rect id="5_103" width="1" height="1" x="478.139" y="574.984" class="rect" style="opacity:.8;fill:#e0e0e0;stroke:#000;stroke-width:.44"/><rect id="5_104" width="1" height="1" x="480.138" y="576.984" class="rect" style="opacity:.8;fill:#a0a0a0;stroke:#000;stroke-width:.44"/><rect id="5_105" width="1" height="1" x="482.138" y="578.984" class="rect" style="opacity:.8;fill:#e0e0e0;stroke:#000;stroke-width:.44"/><rect id="5_106" width="1" height="1" x="484.138" y="580.984" class="rect" style="opacity:.8;fill:#a0a0a0;stroke:#000;stroke-width:.44"/><rect id="5_107" width="1" height="1" x="486.138" y="582.984" class="rect" style="opacity:.8;fill:#e0e0e0;stroke:#000;stroke-width:.44"/><rect id="5_108" width="1" height="1" x="488.138" y="584.984" class="rect" style="opacity:.8;fill:#a0a0a0;stroke:#000;stroke-width:.44"/><rect id="5_109" width="1" height="1" x="490.138" y="586.984" class="rect" style="opacity:.8;fill:#e0e0e0;stroke:#000;stroke-width:.44"/><rect id="5_110" width="1" height="1" x="492.138" y="588.984" class="rect" style="opacity:.8;fill:#a0a0a0;stroke:#000;stroke-width:.44"/><rect id="5_111" width="1" height="1" x="494.138" y="590.984" class="rect" style="opacity:.8;fill:#e0e0e0;stroke:#000;stroke-width:.44"/><rect id="5_112" width="1" height="1" x="496.138" y="592.984" class="rect" style="opacity:.8;fill:#a0a0a0;stroke:#000;stroke-width:.44"/><rect id="5_113" width="1" height="1" x="498.138" y="594.984" class="rect" style="opacity:.8;fill:#e0e0e0;stroke:#000;stroke-width:.44"/><rect id="5_114" width="1" height="1" x="500.138" y="596.984" class="rect" style="opacity:.8;fill:#a0a0a0;stroke:#000;stroke-width:.44"/><rect id="5_115" width="1" height="1" x="502.138" y="598.984" class="rect" style="opacity:.8;fill:#e0e0e0;stroke:#000;stroke-width:.44"/><rect id="5_116" width="1" height="1" x="504.138" y="600.984" class="rect" style="opacity:.8;fill:#a0a0a0;stroke:#000;stroke-width:.44"/><rect id="5_117" width="1" height="1" x="506.138" y="602.984" class="rect" style="opacity:.8;fill:#e0e0e0;stroke:#000;stroke-width:.44"/><rect id="5_118" width="1" height="1" x="508.138" y="604.984" class="rect" style="opacity:.8;fill:#a0a0a0;stroke:#000;stroke-width:.44"/><rect id="5_119" width="1" height="1" x="510.138" y="606.984" class="rect" style="opacity:.8;fill:#e0e0e0;stroke:#000;stroke-width:.44"/><rect id="5_120" width="1" height="1" x="512.138" y="608.984" class="rect" style="opacity:.8;fill:#a0a0a0;stroke:#000;stroke-width:.44"/><rect id="5_121" width="1" height="1" x="514.138" y="610.984" class="rect" style="opacity:.8;fill:#e0e0e0;stroke:#000;stroke-width:.44"/><rect id="5_122" width="1" height="1" x="516.138" y="612.984" class="rect" style="opacity:.8;fill:#a0a0a0;stroke:#000;stroke-width:.44"/><rect id="5_123" width="1" height="1" x="518.138" y="614.984" class="rect" style="opacity:.8;fill:#e0e0e0;stroke:#000;stroke-width:.44"/><rect id="5_124" width="1" height="1" x="520.138" y="616.984" class="rect" style="opacity:.8;fill:#a0a0a0;stroke:#000;stroke-width:.44"/><rect id="5_125" width="1" height="1" x="522.138" y="618.984" class="rect" style="opacity:.8;fill:#e0e0e0;stroke:#000;stroke-width:.44"/><rect id="5_126" width="1" height="1" x="524.138" y="620.984" class="rect" style="opacity:.8;fill:#a0a0a0;stroke:#000;stroke-width:.44"/><rect id="5_127" width="1" height="1" x="526.138" y="622.984" class="rect" style="opacity:.8;fill:#e0e0e0;stroke:#000;stroke-width:.44"/><rect id="5_128" width="1" height="1" x="528.138" y="624.984" class="rect" style="opacity:.8;fill:#a0a0a0;stroke:#000;stroke-width:.44"/><rect id="5_129" width="1" height="1" x="530.138" y="626.984" class="rect" style="opacity:.8;fill:#e0e0e0;stroke:#000;stroke-width:.44"/><rect id="5_130" width="1" height="1" x="532.138" y="628.984" class="rect" style="opacity:.8;fill:#a0a0a0;stroke:#000;stroke-width:.44"/><rect id="5_131" width="1" height="1" x="534.138" y="630.984" class="rect" style="opacity:.8;fill:#e0e0e0;stroke:#000;stroke-width:.44"/><rect id="5_132" width="1" height="1" x="536.138" y="632.984" class="rect" style="opacity:.8;fill:#a0a0a0;stroke:#000;stroke-width:.44"/><rect id="5_133" width="1" height="1" x="538.138" y="634.984" class="rect" style="opacity:.8;fill:#e0e0e0;stroke:#000;stroke-width:.44"/><rect id="5_134" width="1" height="1" x="540.138" y="636.984" class="rect" style="opacity:.8;fill:#a0a0a0;stroke:#000;stroke-width:.44"/><rect id="5_135" width="1" height="1" x="542.138" y="638.984" class="rect" style="opacity:.8;fill:#e0e0e0;stroke:#000;stroke-width:.44"/><rect id="5_136" width="1" height="1" x="544.138" y="640.984" class="rect" style="opacity:.8;fill:#a0a0a0;stroke:#000;stroke-width:.44"/><rect id="5_137" width="1" height="1" x="546.138" y="642.984" class="rect" style="opacity:.8;fill:#e0e0e0;stroke:#000;stroke-width:.44"/><rect id="5_138" width="1" height="1" x="548.138" y="644.984" class="rect" style="opacity:.8;fill:#a0a0a0;stroke:#000;stroke-width:.44"/><rect id="5_139" width="1" height="1" x="550.138" y="646.984" class="rect" style="opacity:.8;fill:#e0e0e0;stroke:#000;stroke-width:.44"/><rect id="5_140" width="1" height="1" x="552.138" y="648.984" class="rect" style="opacity:.8;fill:#a0a0a0;stroke:#000;stroke-width:.44"/><rect id="5_141" width="1" height="1" x="554.138" y="650.984" class="rect" style="opacity:.8;fill:#e0e0e0;stroke:#000;stroke-width:.44"/><rect id="5_142" width="1" height="1" x="556.138" y="652.984" class="rect" style="opacity:.8;fill:#a0a0a0;stroke:#000;stroke-width:.44"/><rect id="5_143" width="1" height="1" x="558.138" y="654.984" class="rect" style="opacity:.8;fill:#e0e0e0;stroke:#000;stroke-width:.44"/><rect id="5_144" width="1" height="1" x="560.138" y="656.984" class="rect" style="opacity:.8;fill:#a0a0a0;stroke:#000;stroke-width:.44"/><rect id="5_145" width="1" height="1" x="562.138" y="658.984" class="rect" style="opacity:.8;fill:#e0e0e0;stroke:#000;stroke-width:.44"/><rect id="5_146" width="1" height="1" x="564.138" y="660.984" class="rect" style="opacity:.8;fill:#a0a0a0;stroke:#000;stroke-width:.44"/><rect id="5_147" width="1" height="1" x="566.138" y="662.984" class="rect" style="opacity:.8;fill:#e0e0e0;stroke:#000;stroke-width:.44"/><rect id="5_148" width="1" height="1" x="568.138" y="664.984" class="rect" style="opacity:.8;fill:#a0a0a0;stroke:#000;stroke-width:.44"/><rect id="5_149" width="1" height="1" x="570.138" y="666.984" class="rect" style="opacity:.8;fill:#e0e0e0;stroke:#000;stroke-width:.44"/><rect id="conv_0" width="1" height="1" x="-15.386" y="484.5" class="conv" style="fill-opacity:0;stroke:#000;stroke-width:.44;stroke-opacity:.8"/><rect id="conv_1" width="18" height="1" x="58.309" y="478.5" class="conv" style="fill-opacity:0;stroke:#000;stroke-width:.44;stroke-opacity:.8"/><rect id="conv_2" width="12" height="1" x="188.258" y="515" class="conv" style="fill-opacity:0;stroke:#000;stroke-width:.44;stroke-opacity:.8"/><rect id="conv_3" width="8" height="1" x="281.413" y="550.5" class="conv" style="fill-opacity:0;stroke:#000;stroke-width:.44;stroke-opacity:.8"/><rect id="conv_4" width="8" height="1" x="401.563" y="607.5" class="conv" style="fill-opacity:0;stroke:#000;stroke-width:.44;stroke-opacity:.8"/><line id="line4419" x1="-14.386" x2="98.13" y1="485.5" y2="479.239" class="link" style="stroke:#000;stroke-width:.22;stroke-opacity:.8"/><line id="line4421" x1="-14.386" x2="98.13" y1="484.5" y2="479.239" class="link" style="stroke:#000;stroke-width:.22;stroke-opacity:.8"/><line id="line4423" x1="76.309" x2="182.746" y1="479.5" y2="515.716" class="link" style="stroke:#000;stroke-width:.22;stroke-opacity:.8"/><line id="line4425" x1="76.309" x2="182.746" y1="478.5" y2="515.716" class="link" style="stroke:#000;stroke-width:.22;stroke-opacity:.8"/><line id="line4427" x1="200.258" x2="285.616" y1="516" y2="550.977" class="link" style="stroke:#000;stroke-width:.22;stroke-opacity:.8"/><line id="line4429" x1="200.258" x2="285.616" y1="515" y2="550.977" class="link" style="stroke:#000;stroke-width:.22;stroke-opacity:.8"/><line id="line4431" x1="289.413" x2="405.238" y1="551.5" y2="608.219" class="link" style="stroke:#000;stroke-width:.22;stroke-opacity:.8"/><line id="line4433" x1="289.413" x2="405.238" y1="550.5" y2="608.219" class="link" style="stroke:#000;stroke-width:.22;stroke-opacity:.8"/><line id="line4435" x1="409.563" x2="571.138" y1="608.5" y2="667.984" class="link" style="stroke:#000;stroke-width:.19752622;stroke-opacity:.8"/><line id="line4437" x1="409.563" x2="571.138" y1="607.5" y2="667.984" class="link" style="stroke:#000;stroke-width:.19756295;stroke-opacity:.8"/><polygon id="fc_0" points="663.255 542.627 618 497.373 628 497.373 673.255 542.627" class="poly" transform="translate(-52.049135,0.92944884)" style="opacity:.8;fill:#e0e0e0;stroke:#000;stroke-width:.44"/><polygon id="fc_1" points="677.376 521.061 675.255 518.939 685.255 518.939 687.376 521.061" class="poly" transform="translate(-52.049135,0.92944884)" style="opacity:.8;fill:#e0e0e0;stroke:#000;stroke-width:.44"/><line id="line4441" x1="571.138" x2="611.206" y1="666.984" y2="543.557" class="line" style="stroke:#000;stroke-width:.18152511;stroke-opacity:.8"/><line id="line4443" x1="273.139" x2="565.951" y1="369.984" y2="498.302" class="line" style="stroke:#000;stroke-width:.21502848;stroke-opacity:.8"/><line id="line4445" x1="621.206" x2="625.327" y1="543.557" y2="521.99" class="line" style="stroke:#000;stroke-width:.22;stroke-opacity:.8"/><line id="line4447" x1="575.951" x2="623.206" y1="498.302" y2="519.869" class="line" style="stroke:#000;stroke-width:.22;stroke-opacity:.8"/><text style="font-size:16px;font-family:sans-serif" id="text4449" x="-29.535" y="514.632" class="text" dy="5.6">Spatial-Filter</text><text style="font-size:16px;font-family:sans-serif" id="text4451" x="81.221" y="541.586" class="text" dy="5.6">Conv1D &amp; MP</text><text style="font-size:16px;font-family:sans-serif" id="text4453" x="199.449" y="581.552" class="text" dy="5.6">Conv1D &amp; MP</text><text style="font-size:16px;font-family:sans-serif" id="text4455" x="295.686" y="629.883" class="text" dy="5.6">Conv1D &amp; MP</text><text style="font-size:16px;font-family:sans-serif" id="text4457" x="421.397" y="669.85" class="text" dy="5.6">Conv1D &amp;GAP</text><text style="font-size:16px;font-family:sans-serif" id="text4459" x="587.866" y="639.178" class="text">Dense</text><text style="font-size:16px;font-family:sans-serif" id="text4461" x="-117.448" y="440.429" class="info">Chans@1x701</text><text style="font-size:16px;font-family:sans-serif" id="text4463" x="28" y="445.5" class="info" dy="-.3em">10@1x701</text><text style="font-size:16px;font-family:sans-serif" id="text4465" x="125.328" y="495.66" class="info" dy="-4.8">12@1x222</text><text style="font-size:16px;font-family:sans-serif" id="text4467" x="168.245" y="468.288" class="info" dy="-4.8">36@1x67</text><text style="font-size:16px;font-family:sans-serif" id="text4469" x="184.175" y="422.865" class="info" dy="-4.8">90@1x18</text><text style="font-size:16px;font-family:sans-serif" id="text4471" x="309.788" y="388.96" class="info" dy="-4.8">150@1x1</text><text style="font-size:16px;font-family:sans-serif" id="text4473" x="553.868" y="483.302" class="info" dy="-4.8">1x64</text><text style="font-size:16px;font-family:sans-serif" id="text4475" x="621.347" y="510.445" class="info" dy="-4.8">1x3</text></g></svg>